<?xml version="1.0" encoding="UTF-8" standalone="no"?>
<svg
   xmlns:dc="http://purl.org/dc/elements/1.1/"
   xmlns:cc="http://creativecommons.org/ns#"
   xmlns:rdf="http://www.w3.org/1999/02/22-rdf-syntax-ns#"
   xmlns:svg="http://www.w3.org/2000/svg"
   xmlns="http://www.w3.org/2000/svg"
   xmlns:sodipodi="http://sodipodi.sourceforge.net/DTD/sodipodi-0.dtd"
   xmlns:inkscape="http://www.inkscape.org/namespaces/inkscape"
   version="1.1"
   id="svg2"
   xml:space="preserve"
   width="596.22668"
   height="596.22668"
   viewBox="0 0 596.22668 596.22668"
   sodipodi:docname="teste.svg"
   inkscape:version="1.0.2 (e86c870879, 2021-01-15)"><metadata
     id="metadata8"><rdf:RDF><cc:Work
         rdf:about=""><dc:format>image/svg+xml</dc:format><dc:type
           rdf:resource="http://purl.org/dc/dcmitype/StillImage" /><dc:title></dc:title></cc:Work></rdf:RDF></metadata><defs
     id="defs6" /><sodipodi:namedview
     pagecolor="#ffffff"
     bordercolor="#666666"
     borderopacity="1"
     objecttolerance="10"
     gridtolerance="10"
     guidetolerance="10"
     inkscape:pageopacity="0"
     inkscape:pageshadow="2"
     inkscape:window-width="1920"
     inkscape:window-height="1017"
     id="namedview4"
     inkscape:document-rotation="0"
     showgrid="false"
     inkscape:zoom="1.3870563"
     inkscape:cx="298.11334"
     inkscape:cy="269.27529"
     inkscape:window-x="1072"
     inkscape:window-y="399"
     inkscape:window-maximized="1"
     inkscape:current-layer="g10" /><g
     id="g10"
     inkscape:groupmode="layer"
     inkscape:label="ink_ext_XXXXXX"
     transform="matrix(1.3333333,0,0,-1.3333333,0,596.22667)"><g
       id="g12"
       transform="matrix(0.00486394,0,0,0.00486394,0,425.418)"><path
         d="M 4471.68,4471.68 H 0 V 0 H 4471.68 Z M 4166.7,4166.7 V 304.992 H 304.988 V 4166.7 H 4166.7"
         style="fill:#000000;fill-opacity:1;fill-rule:nonzero;stroke:none"
         id="path14" /><path
         d="M 1384.89,3722.76 V 2688.85 c 0,-17.15 -14.06,-29.66 -29.67,-29.66 h -23.41 c -21.86,0 -106.21,0 -106.21,0 h -6.25 c -14.06,3.09 -26.57,14.05 -31.21,29.66 l -203.07,698.13 v -698.13 c 0,-17.15 -14.058,-29.66 -29.664,-29.66 H 849.195 c -15.605,0 -29.664,12.51 -29.664,29.66 v 1033.91 c 0,17.16 14.059,29.67 29.664,29.67 h 29.727 c 32.758,0 85.894,0 106.148,0 h 4.707 c 17.153,0 34.373,-12.51 39.073,-29.67 l 190.5,-668.46 v 668.46 c 0,17.16 14.05,29.67 29.66,29.67 h 106.21 c 15.61,0 29.67,-12.51 29.67,-29.67"
         style="fill:#000000;fill-opacity:1;fill-rule:nonzero;stroke:none"
         id="path16" /><path
         d="m 1615.95,3588.44 v -299.86 h 223.32 c 17.15,0 29.66,-14.06 29.66,-29.67 V 3152.7 c 0,-15.6 -12.51,-29.66 -29.66,-29.66 h -223.32 v -299.86 h 282.64 c 15.62,0 29.67,-12.51 29.67,-28.12 v -106.21 c 0,-17.15 -14.05,-29.66 -29.67,-29.66 h -282.64 -76.54 c -29.67,0 -57.79,0 -57.79,0 -17.21,0 -29.66,12.51 -29.66,29.66 v 1033.91 c 0,17.16 12.45,29.67 29.66,29.67 h 57.79 c 32.82,0 70.28,0 76.54,0 h 282.64 c 15.62,0 29.67,-12.51 29.67,-29.67 v -106.21 c 0,-15.6 -14.05,-28.11 -29.67,-28.11 h -282.64"
         style="fill:#000000;fill-opacity:1;fill-rule:nonzero;stroke:none"
         id="path18" /><path
         d="m 2159.32,3588.44 v -299.86 h 223.32 c 17.16,0 29.67,-14.06 29.67,-29.67 V 3152.7 c 0,-15.6 -12.51,-29.66 -29.67,-29.66 h -223.32 v -299.86 h 282.65 c 15.6,0 29.67,-12.51 29.67,-28.12 v -106.21 c 0,-17.15 -14.07,-29.66 -29.67,-29.66 h -282.65 -76.54 c -29.66,0 -57.78,0 -57.78,0 -17.22,0 -29.67,12.51 -29.67,29.66 v 1033.91 c 0,17.16 12.45,29.67 29.67,29.67 h 57.78 c 32.82,0 70.29,0 76.54,0 h 282.65 c 15.6,0 29.67,-12.51 29.67,-29.67 v -106.21 c 0,-15.6 -14.07,-28.11 -29.67,-28.11 h -282.65"
         style="fill:#000000;fill-opacity:1;fill-rule:nonzero;stroke:none"
         id="path20" /><path
         d="m 2896.35,3499.45 c -4.64,60.87 -56.23,88.99 -120.26,88.99 h -73.39 v -765.26 h 73.39 c 64.03,0 115.62,28.11 120.26,88.99 z m 165.54,12.44 v -612.17 c 0,-145.28 -118.66,-240.53 -265.49,-240.53 h -93.7 -93.7 c -23.41,0 -40.62,0 -40.62,0 -17.16,0 -29.67,12.51 -29.67,29.66 v 1033.91 c 0,17.16 12.51,29.67 29.67,29.67 H 2609 c 32.82,0 76.54,0 93.7,0 h 93.7 c 146.83,0 265.49,-95.25 265.49,-240.54"
         style="fill:#000000;fill-opacity:1;fill-rule:nonzero;stroke:none"
         id="path22" /><path
         d="m 3652.14,3488.48 v -21.86 c 0,-3.09 0,-4.7 0,-7.8 v -6.25 c 0,-15.61 -14.06,-29.67 -29.66,-29.67 h -106.2 c -15.62,0 -29.67,14.06 -29.67,29.67 v 6.25 7.8 c 0,67.2 -29.67,121.82 -96.86,121.82 -65.58,0 -96.79,-54.62 -96.79,-121.82 V 3426 c 0,-1.55 0,-3.1 0,-4.65 v -3.15 c 0,-15.61 0,-59.34 23.4,-89 65.59,-82.8 201.46,-60.94 302.96,-229.57 23.47,-39.08 32.82,-114.01 32.82,-134.32 v -1.56 c 0,-3.15 0,-4.7 0,-4.7 v -35.92 c 0,-145.23 -95.24,-263.94 -242.08,-263.94 h -40.62 c -145.22,0 -240.48,118.71 -240.48,263.94 v 15.61 14.06 c 0,17.21 12.45,29.66 29.67,29.66 h 104.66 c 17.16,0 29.67,-12.45 29.67,-29.66 v -7.81 c 0,-67.13 31.21,-121.81 96.79,-121.81 67.19,0 96.86,54.68 96.86,121.81 v 14.06 c 0,0 0,1.55 0,4.7 v 1.56 c 0,18.7 -4.71,71.83 -32.82,106.2 -70.3,89 -234.28,54.63 -307.67,232.67 -14.06,35.92 -17.16,93.7 -17.16,114.02 v 3.15 c 0,1.55 0,3.1 0,4.65 v 62.48 c 0,145.29 95.26,263.95 240.48,263.95 h 40.62 c 146.84,0 242.08,-118.66 242.08,-263.95"
         style="fill:#000000;fill-opacity:1;fill-rule:nonzero;stroke:none"
         id="path24" /><path
         d="m 1399.06,1410 c -7.44,94.05 -89.11,138.61 -190.61,138.61 h -116.4 V 979.211 h 116.4 c 101.5,0 183.17,-2.5 190.61,94.049 z m -307.01,782.35 v -383.73 h 116.4 c 101.5,0 183.17,44.56 190.61,141.11 v 148.51 c -7.44,96.56 -89.11,94.11 -190.61,94.11 z m 366.46,-512.51 c 121.28,-49.5 203.01,-146.06 203.01,-299.57 v -326.79 c 0,-230.218 -133.73,-334.218 -363.96,-334.218 H 1092.05 943.551 c -37.168,0 -66.895,0 -66.895,0 -24.722,0 -44.554,19.769 -44.554,47.047 V 2405.25 c 0,27.22 19.832,47.06 44.554,47.06 h 66.895 c 56.949,0 136.169,0 148.499,0 h 205.51 c 230.23,0 363.96,-104.01 363.96,-334.24 v -141.11 c 0,-151.06 -81.73,-247.57 -203.01,-297.12"
         style="fill:#000000;fill-opacity:1;fill-rule:nonzero;stroke:none"
         id="path26" /><path
         d="m 2198.64,2192.35 c -103.95,0 -153.51,-86.67 -153.51,-193.11 v -826.92 c 0,-106.44 49.56,-193.109 153.51,-193.109 106.44,0 153.5,86.669 153.5,193.109 v 826.92 c 0,106.44 -47.06,193.11 -153.5,193.11 z m -32.17,259.96 h 64.4 c 232.66,0 383.73,-188.18 383.73,-418.41 v -896.25 c 0,-230.22 -151.07,-418.388 -383.73,-418.388 h -64.4 c -230.23,0 -381.29,188.168 -381.29,418.388 v 896.25 c 0,230.23 151.06,418.41 381.29,418.41"
         style="fill:#000000;fill-opacity:1;fill-rule:nonzero;stroke:none"
         id="path28" /><path
         d="m 3617.17,766.309 c 9.9,-27.278 -2.44,-47.047 -27.21,-47.047 h -168.34 c -27.22,0 -54.5,19.769 -66.84,47.047 L 3156.72,1261.43 2956.16,766.309 c -9.89,-27.278 -39.61,-47.047 -66.84,-47.047 h -168.34 c -24.77,0 -37.17,19.769 -27.27,47.047 l 331.78,821.911 -329.28,817.03 c -9.9,27.22 2.5,47.06 29.72,47.06 h 165.83 c 27.29,0 54.51,-19.84 66.9,-47.06 l 198.06,-492.68 198.06,492.68 c 12.34,27.22 39.62,47.06 66.84,47.06 h 168.34 c 24.77,0 37.11,-19.84 27.21,-47.06 l -329.28,-817.03 329.28,-821.911"
         style="fill:#000000;fill-opacity:1;fill-rule:nonzero;stroke:none"
         id="path30" /></g></g></svg>
