<?xml version="1.0" encoding="UTF-8" standalone="no"?>
<svg
   xmlns:dc="http://purl.org/dc/elements/1.1/"
   xmlns:cc="http://creativecommons.org/ns#"
   xmlns:rdf="http://www.w3.org/1999/02/22-rdf-syntax-ns#"
   xmlns:svg="http://www.w3.org/2000/svg"
   xmlns="http://www.w3.org/2000/svg"
   xmlns:sodipodi="http://sodipodi.sourceforge.net/DTD/sodipodi-0.dtd"
   xmlns:inkscape="http://www.inkscape.org/namespaces/inkscape"
   version="1.1"
   id="svg2"
   xml:space="preserve"
   width="112"
   height="29"
   viewBox="0 0 111.99995 29.000032"
   sodipodi:docname="logo.svg"
   inkscape:version="1.0.2 (e86c870879, 2021-01-15)"><metadata
     id="metadata8"><rdf:RDF><cc:Work
         rdf:about=""><dc:format>image/svg+xml</dc:format><dc:type
           rdf:resource="http://purl.org/dc/dcmitype/StillImage" /><dc:title></dc:title></cc:Work></rdf:RDF></metadata><defs
     id="defs6" /><sodipodi:namedview
     pagecolor="#ffffff"
     bordercolor="#666666"
     borderopacity="1"
     objecttolerance="10"
     gridtolerance="10"
     guidetolerance="10"
     inkscape:pageopacity="0"
     inkscape:pageshadow="2"
     inkscape:window-width="1920"
     inkscape:window-height="1017"
     id="namedview4"
     inkscape:document-rotation="0"
     showgrid="false"
     inkscape:zoom="11.405058"
     inkscape:cx="60.857709"
     inkscape:cy="18.322318"
     inkscape:window-x="1072"
     inkscape:window-y="399"
     inkscape:window-maximized="1"
     inkscape:current-layer="g10"
     units="px"
     height="296mm" /><g
     id="g10"
     inkscape:groupmode="layer"
     inkscape:label="ink_ext_XXXXXX"
     transform="matrix(1.3333333,0,0,-1.3333333,0,596.22667)"><g
       id="g12"
       transform="matrix(0.1,0,0,0.1,-12.231429,-0.19728111)"><path
         d="M 314.16062,4457.703 H 132.34553 v -181.8151 h 181.81509 z m -12.40026,-12.4002 V 4288.2886 H 144.74611 v 157.0142 h 157.01425"
         style="fill:#000000;fill-opacity:1;fill-rule:nonzero;stroke:none;stroke-width:0.0406593"
         id="path14" /><path
         d="m 401.73481,4440.0597 v -145.6209 c 0,-2.4154 -1.84471,-4.1774 -3.89284,-4.1774 h -3.07152 c -2.86812,0 -13.93526,0 -13.93526,0 h -0.81999 c -1.84478,0.4352 -3.48613,1.9788 -4.09492,4.1774 l -26.64378,98.3281 v -98.3281 c 0,-2.4154 -1.84445,-4.1774 -3.89206,-4.1774 h -13.93538 c -2.04746,0 -3.89205,1.762 -3.89205,4.1774 v 145.6209 c 0,2.4168 1.84459,4.1789 3.89205,4.1789 h 3.90031 c 4.29805,0 11.26974,0 13.92713,0 h 0.61761 c 2.25056,0 4.50991,-1.7621 5.12652,-4.1789 l 24.99457,-94.1492 v 94.1492 c 0,2.4168 1.84344,4.1789 3.89152,4.1789 h 13.93525 c 2.04813,0 3.89284,-1.7621 3.89284,-4.1789"
         style="fill:#000000;fill-opacity:1;fill-rule:nonzero;stroke:none;stroke-width:0.135939"
         id="path16" /><path
         d="m 432.05104,4421.1415 v -42.2337 h 29.30063 c 2.25014,0 3.89151,-1.9805 3.89151,-4.1791 v -14.9591 c 0,-2.1971 -1.64137,-4.1774 -3.89151,-4.1774 h -29.30063 v -42.2336 h 37.0837 c 2.04942,0 3.89285,-1.7619 3.89285,-3.9606 v -14.9592 c 0,-2.4154 -1.84343,-4.1774 -3.89285,-4.1774 h -37.0837 -10.04242 c -3.8929,0 -7.58233,0 -7.58233,0 -2.25806,0 -3.89157,1.762 -3.89157,4.1774 v 145.6209 c 0,2.4168 1.63351,4.1789 3.89157,4.1789 h 7.58233 c 4.30613,0 9.22104,0 10.04242,0 h 37.0837 c 2.04942,0 3.89285,-1.7621 3.89285,-4.1789 v -14.9592 c 0,-2.1972 -1.84343,-3.959 -3.89285,-3.959 h -37.0837"
         style="fill:#000000;fill-opacity:1;fill-rule:nonzero;stroke:none;stroke-width:0.135939"
         id="path18" /><path
         d="m 503.34377,4421.1415 v -42.2337 h 29.30063 c 2.25146,0 3.89287,-1.9805 3.89287,-4.1791 v -14.9591 c 0,-2.1971 -1.64141,-4.1774 -3.89287,-4.1774 h -29.30063 v -42.2336 h 37.08503 c 2.0468,0 3.89284,-1.7619 3.89284,-3.9606 v -14.9592 c 0,-2.4154 -1.84604,-4.1774 -3.89284,-4.1774 h -37.08503 -10.04242 c -3.89152,0 -7.58101,0 -7.58101,0 -2.25935,0 -3.89285,1.762 -3.89285,4.1774 v 145.6209 c 0,2.4168 1.6335,4.1789 3.89285,4.1789 h 7.58101 c 4.30612,0 9.22238,0 10.04242,0 h 37.08503 c 2.0468,0 3.89284,-1.7621 3.89284,-4.1789 v -14.9592 c 0,-2.1972 -1.84604,-3.959 -3.89284,-3.959 h -37.08503"
         style="fill:#000000;fill-opacity:1;fill-rule:nonzero;stroke:none;stroke-width:0.135939"
         id="path20" /><path
         d="m 600.04568,4408.6076 c -0.60882,8.5733 -7.37771,12.5339 -15.77879,12.5339 h -9.62908 v -107.7829 h 9.62908 c 8.40108,0 15.16997,3.9591 15.77879,12.5336 z m 21.71958,1.7521 v -86.221 c 0,-20.4619 -15.56874,-33.8773 -34.83351,-33.8773 h -12.29394 -12.29384 c -3.07154,0 -5.32958,0 -5.32958,0 -2.2515,0 -3.89284,1.762 -3.89284,4.1774 v 145.6209 c 0,2.4168 1.64134,4.1789 3.89284,4.1789 h 5.32958 c 4.30606,0 10.04238,0 12.29384,0 h 12.29394 c 19.26477,0 34.83351,-13.4154 34.83351,-33.8789"
         style="fill:#000000;fill-opacity:1;fill-rule:nonzero;stroke:none;stroke-width:0.135939"
         id="path22" /><path
         d="m 699.20888,4407.0626 v -3.0788 c 0,-0.4353 0,-0.6622 0,-1.0988 v -0.8802 c 0,-2.1986 -1.84467,-4.1788 -3.89146,-4.1788 h -13.93394 c -2.04952,0 -3.89287,1.9802 -3.89287,4.1788 v 0.8802 1.0988 c 0,9.4647 -3.89286,17.1577 -12.70854,17.1577 -8.60433,0 -12.69933,-7.693 -12.69933,-17.1577 v -5.7212 c 0,-0.2183 0,-0.4366 0,-0.6549 v -0.4437 c 0,-2.1984 0,-8.3578 3.07023,-12.5352 8.60573,-11.6619 26.43254,-8.583 39.74981,-32.3337 3.07939,-5.5042 4.3061,-16.0578 4.3061,-18.9183 v -0.2197 c 0,-0.4437 0,-0.6619 0,-0.6619 v -5.0592 c 0,-20.4549 -12.49587,-37.1746 -31.76206,-37.1746 h -5.32953 c -19.05358,0 -31.55211,16.7197 -31.55211,37.1746 v 2.1985 1.9803 c 0,2.4241 1.63349,4.1775 3.89289,4.1775 h 13.7319 c 2.25146,0 3.89277,-1.7534 3.89277,-4.1775 v -1.1001 c 0,-9.4547 4.095,-17.1561 12.69933,-17.1561 8.81568,0 12.70854,7.7014 12.70854,17.1561 v 1.9805 c 0,0 0,0.2182 0,0.6619 v 0.2197 c 0,2.6337 -0.61806,10.1169 -4.30617,14.9578 -9.2237,12.535 -30.7387,7.6942 -40.36778,32.7703 -1.84477,5.0591 -2.25148,13.197 -2.25148,16.0591 v 0.4437 c 0,0.2183 0,0.4366 0,0.6549 v 8.8 c 0,20.4633 12.49853,37.176 31.55211,37.176 h 5.32953 c 19.26619,0 31.76206,-16.7127 31.76206,-37.176"
         style="fill:#000000;fill-opacity:1;fill-rule:nonzero;stroke:none;stroke-width:0.135939"
         id="path24" /><path
         d="m 757.95586,4350.8982 c -0.6444,8.1463 -7.71827,12.0058 -16.50971,12.0058 h -10.08201 v -49.3187 h 10.08201 c 8.79144,0 15.86531,-0.2166 16.50971,8.1462 z m -26.59172,67.7635 v -33.2369 h 10.08201 c 8.79144,0 15.86531,3.8597 16.50971,12.2223 v 12.8633 c -0.6444,8.3634 -7.71827,8.1513 -16.50971,8.1513 z m 31.74099,-44.3912 c 10.50477,-4.2875 17.58384,-12.6509 17.58384,-25.9474 v -28.3049 c 0,-19.9405 -11.58312,-28.9484 -31.52455,-28.9484 h -17.80028 -12.86229 c -3.2193,0 -5.79415,0 -5.79415,0 -2.14124,0 -3.85899,1.7124 -3.85899,4.075 v 141.9574 c 0,2.3576 1.71775,4.0761 3.85899,4.0761 h 5.79415 c 4.93265,0 11.79431,0 12.86229,0 h 17.80028 c 19.94143,0 31.52455,-9.0089 31.52455,-28.9504 v -12.2222 c 0,-13.0842 -7.07907,-21.4435 -17.58384,-25.7352"
         style="fill:#000000;fill-opacity:1;fill-rule:nonzero;stroke:none;stroke-width:0.086615"
         id="path26" /><path
         d="m 827.21174,4418.6617 c -9.00366,0 -13.29632,-7.5069 -13.29632,-16.7262 v -71.6238 c 0,-9.2194 4.29266,-16.7264 13.29632,-16.7264 9.21929,0 13.2954,7.507 13.2954,16.7264 v 71.6238 c 0,9.2193 -4.07611,16.7262 -13.2954,16.7262 z m -2.78648,22.5166 h 5.57807 c 20.15186,0 33.23681,-16.2992 33.23681,-36.2408 v -77.629 c 0,-19.9404 -13.08495,-36.2387 -33.23681,-36.2387 h -5.57807 c -19.94142,0 -33.02555,16.2983 -33.02555,36.2387 v 77.629 c 0,19.9416 13.08413,36.2408 33.02555,36.2408"
         style="fill:#000000;fill-opacity:1;fill-rule:nonzero;stroke:none;stroke-width:0.086615"
         id="path28" /><path
         d="m 950.07808,4295.1448 c 0.85755,-2.3626 -0.21137,-4.075 -2.35678,-4.075 h -14.58086 c -2.35762,0 -4.72052,1.7124 -5.78935,4.075 l -17.15503,42.8851 -17.3715,-42.8851 c -0.85661,-2.3626 -3.4309,-4.075 -5.78944,-4.075 h -14.58078 c -2.14551,0 -3.21951,1.7124 -2.36196,4.075 l 28.73722,71.1901 -28.52077,70.7673 c -0.85744,2.3576 0.21656,4.0761 2.57427,4.0761 h 14.36337 c 2.36377,0 4.72148,-1.7185 5.79465,-4.0761 l 17.15494,-42.6738 17.15503,42.6738 c 1.06883,2.3576 3.43173,4.0761 5.78935,4.0761 h 14.58086 c 2.14541,0 3.21433,-1.7185 2.35678,-4.0761 l -28.52068,-70.7673 28.52068,-71.1901"
         style="fill:#000000;fill-opacity:1;fill-rule:nonzero;stroke:none;stroke-width:0.086615"
         id="path30" /></g></g></svg>
