<?xml version="1.0" encoding="UTF-8" standalone="no"?>
<svg
   xmlns:dc="http://purl.org/dc/elements/1.1/"
   xmlns:cc="http://creativecommons.org/ns#"
   xmlns:rdf="http://www.w3.org/1999/02/22-rdf-syntax-ns#"
   xmlns:svg="http://www.w3.org/2000/svg"
   xmlns="http://www.w3.org/2000/svg"
   xmlns:sodipodi="http://sodipodi.sourceforge.net/DTD/sodipodi-0.dtd"
   xmlns:inkscape="http://www.inkscape.org/namespaces/inkscape"
   version="1.1"
   id="svg2"
   xml:space="preserve"
   width="107"
   height="29"
   viewBox="0 0 106.99995 29.000032"
   sodipodi:docname="logo.svg"
   inkscape:version="1.0.2 (e86c870879, 2021-01-15)"><metadata
     id="metadata8"><rdf:RDF><cc:Work
         rdf:about=""><dc:format>image/svg+xml</dc:format><dc:type
           rdf:resource="http://purl.org/dc/dcmitype/StillImage" /><dc:title></dc:title></cc:Work></rdf:RDF></metadata><defs
     id="defs6" /><sodipodi:namedview
     pagecolor="#ffffff"
     bordercolor="#666666"
     borderopacity="1"
     objecttolerance="10"
     gridtolerance="10"
     guidetolerance="10"
     inkscape:pageopacity="0"
     inkscape:pageshadow="2"
     inkscape:window-width="1920"
     inkscape:window-height="1017"
     id="namedview4"
     inkscape:document-rotation="0"
     showgrid="false"
     inkscape:zoom="11.405058"
     inkscape:cx="60.857709"
     inkscape:cy="18.322318"
     inkscape:window-x="1072"
     inkscape:window-y="399"
     inkscape:window-maximized="1"
     inkscape:current-layer="g10"
     units="px"
     height="296mm" /><g
     id="g10"
     inkscape:groupmode="layer"
     inkscape:label="ink_ext_XXXXXX"
     transform="matrix(1.3333333,0,0,-1.3333333,0,596.22667)"><g
       id="g12"
       transform="matrix(0.1,0,0,0.1,-12.42871,-0.59184333)"><path
         d="m 232.09658,4458.8654 v -180.5231 c 0,-2.9943 -2.28684,-5.1786 -4.82587,-5.1786 h -3.8077 c -3.55554,0 -17.27524,0 -17.27524,0 h -1.01652 c -2.28694,0.5395 -4.32168,2.4531 -5.07639,5.1786 l -33.02972,121.8953 v -121.8953 c 0,-2.9943 -2.28653,-5.1786 -4.82491,-5.1786 h -17.27539 c -2.53819,0 -4.82489,2.1843 -4.82489,5.1786 v 180.5231 c 0,2.9961 2.2867,5.1805 4.82489,5.1805 h 4.83513 c 5.3282,0 13.97086,0 17.26517,0 h 0.76564 c 2.78997,0 5.59083,-2.1844 6.35523,-5.1805 l 30.98524,-116.7147 v 116.7147 c 0,2.9961 2.28527,5.1805 4.82423,5.1805 h 17.27523 c 2.53903,0 4.82587,-2.1844 4.82587,-5.1805"
         style="fill:#000000;fill-opacity:1;fill-rule:nonzero;stroke:none;stroke-width:0.168521"
         id="path16" /><path
         d="m 269.67896,4435.413 v -52.3563 h 36.32337 c 2.78945,0 4.82422,-2.4551 4.82422,-5.1807 v -18.5445 c 0,-2.7237 -2.03477,-5.1786 -4.82422,-5.1786 h -36.32337 v -52.3561 h 45.97188 c 2.54062,0 4.82588,-2.1842 4.82588,-4.9099 v -18.5446 c 0,-2.9943 -2.28526,-5.1786 -4.82588,-5.1786 h -45.97188 -12.44937 c -4.82594,0 -9.39965,0 -9.39965,0 -2.79927,0 -4.8243,2.1843 -4.8243,5.1786 v 180.5231 c 0,2.9961 2.02503,5.1805 4.8243,5.1805 h 9.39965 c 5.33822,0 11.43113,0 12.44937,0 h 45.97188 c 2.54062,0 4.82588,-2.1844 4.82588,-5.1805 v -18.5446 c 0,-2.7238 -2.28526,-4.9078 -4.82588,-4.9078 h -45.97188"
         style="fill:#000000;fill-opacity:1;fill-rule:nonzero;stroke:none;stroke-width:0.168521"
         id="path18" /><path
         d="m 358.05904,4435.413 v -52.3563 h 36.32336 c 2.79109,0 4.82591,-2.4551 4.82591,-5.1807 v -18.5445 c 0,-2.7237 -2.03482,-5.1786 -4.82591,-5.1786 h -36.32336 v -52.3561 h 45.97352 c 2.53737,0 4.82587,-2.1842 4.82587,-4.9099 v -18.5446 c 0,-2.9943 -2.2885,-5.1786 -4.82587,-5.1786 h -45.97352 -12.44938 c -4.82423,0 -9.39801,0 -9.39801,0 -2.80087,0 -4.82588,2.1843 -4.82588,5.1786 v 180.5231 c 0,2.9961 2.02501,5.1805 4.82588,5.1805 h 9.39801 c 5.33821,0 11.43279,0 12.44938,0 h 45.97352 c 2.53737,0 4.82587,-2.1844 4.82587,-5.1805 v -18.5446 c 0,-2.7238 -2.2885,-4.9078 -4.82587,-4.9078 h -45.97352"
         style="fill:#000000;fill-opacity:1;fill-rule:nonzero;stroke:none;stroke-width:0.168521"
         id="path20" /><path
         d="m 477.93833,4419.875 c -0.75474,10.6281 -9.14599,15.538 -19.56063,15.538 h -11.93696 v -133.6162 h 11.93696 c 10.41464,0 18.80589,4.908 19.56063,15.5376 z m 26.9253,2.172 v -106.8863 c 0,-25.3662 -19.30024,-41.997 -43.18236,-41.997 h -15.24053 -15.24042 c -3.80772,0 -6.60696,0 -6.60696,0 -2.79114,0 -4.82587,2.1843 -4.82587,5.1786 v 180.5231 c 0,2.9961 2.03473,5.1805 4.82587,5.1805 h 6.60696 c 5.33814,0 12.44933,0 15.24042,0 h 15.24053 c 23.88212,0 43.18236,-16.6307 43.18236,-41.9989"
         style="fill:#000000;fill-opacity:1;fill-rule:nonzero;stroke:none;stroke-width:0.168521"
         id="path22" /><path
         d="m 600.86883,4417.9597 v -3.8168 c 0,-0.5396 0,-0.8209 0,-1.3621 v -1.0912 c 0,-2.7256 -2.2868,-5.1804 -4.82416,-5.1804 h -17.27361 c -2.54075,0 -4.82591,2.4548 -4.82591,5.1804 v 1.0912 1.3621 c 0,11.7332 -4.82589,21.2701 -15.7545,21.2701 -10.66661,0 -15.74309,-9.5369 -15.74309,-21.2701 v -7.0924 c 0,-0.2706 0,-0.5413 0,-0.8119 v -0.55 c 0,-2.7253 0,-10.361 3.8061,-15.5397 10.66834,-14.457 32.76785,-10.6401 49.27699,-40.0833 3.81745,-6.8235 5.33818,-19.9066 5.33818,-23.4527 v -0.2723 c 0,-0.5501 0,-0.8206 0,-0.8206 v -6.2717 c 0,-25.3575 -15.49087,-46.0846 -39.37475,-46.0846 h -6.6069 c -23.62032,0 -39.11448,20.7271 -39.11448,46.0846 v 2.7254 2.4549 c 0,3.0051 2.025,5.1788 4.82593,5.1788 h 17.02315 c 2.79108,0 4.82578,-2.1737 4.82578,-5.1788 v -1.3637 c 0,-11.7208 5.07648,-21.2681 15.74309,-21.2681 10.92861,0 15.7545,9.5473 15.7545,21.2681 v 2.4551 c 0,0 0,0.2705 0,0.8206 v 0.2723 c 0,3.265 -0.76619,12.5417 -5.33826,18.5429 -11.43443,15.5394 -38.10611,9.5383 -50.04308,40.6246 -2.28692,6.2717 -2.79111,16.3601 -2.79111,19.9082 v 0.55 c 0,0.2706 0,0.5413 0,0.8119 v 10.9092 c 0,25.3679 15.49416,46.0862 39.11448,46.0862 h 6.6069 c 23.88388,0 39.37475,-20.7183 39.37475,-46.0862"
         style="fill:#000000;fill-opacity:1;fill-rule:nonzero;stroke:none;stroke-width:0.168521"
         id="path24" /><path
         d="m 673.6962,4348.3338 c -0.79885,10.0988 -9.56817,14.8834 -20.46673,14.8834 h -12.49845 v -61.1394 h 12.49845 c 10.89856,0 19.66788,-0.2685 20.46673,10.0987 z m -32.96518,84.005 v -41.2031 h 12.49845 c 10.89856,0 19.66788,4.7848 20.46673,15.1518 v 15.9463 c -0.79885,10.3679 -9.56817,10.105 -20.46673,10.105 z m 39.34862,-55.0308 c 13.02254,-5.3151 21.79831,-15.6831 21.79831,-32.1665 v -35.0889 c 0,-24.7198 -14.35934,-35.8867 -39.08031,-35.8867 h -22.06662 -15.94511 c -3.9909,0 -7.18288,0 -7.18288,0 -2.65445,0 -4.78391,2.1228 -4.78391,5.0516 v 175.9816 c 0,2.9227 2.12946,5.0531 4.78391,5.0531 h 7.18288 c 6.1149,0 14.62115,0 15.94511,0 h 22.06662 c 24.72097,0 39.08031,-11.1682 39.08031,-35.8892 v -15.1516 c 0,-16.2202 -8.77577,-26.5831 -21.79831,-31.9034"
         style="fill:#000000;fill-opacity:1;fill-rule:nonzero;stroke:none;stroke-width:0.107375"
         id="path26" /><path
         d="m 759.55124,4432.3388 c -11.16165,0 -16.48317,-9.3061 -16.48317,-20.7351 v -88.7905 c 0,-11.4291 5.32152,-20.7354 16.48317,-20.7354 11.42895,0 16.48202,9.3063 16.48202,20.7354 v 88.7905 c 0,11.429 -5.05307,20.7351 -16.48202,20.7351 z m -3.45434,27.9134 h 6.91501 c 24.98183,0 41.20296,-20.2058 41.20296,-44.927 v -96.235 c 0,-24.7197 -16.22113,-44.9243 -41.20296,-44.9243 h -6.91501 c -24.72096,0 -40.94107,20.2046 -40.94107,44.9243 v 96.235 c 0,24.7212 16.22011,44.927 40.94107,44.927"
         style="fill:#000000;fill-opacity:1;fill-rule:nonzero;stroke:none;stroke-width:0.107375"
         id="path28" /><path
         d="m 911.86601,4279.2175 c 1.06309,-2.9288 -0.26203,-5.0516 -2.92165,-5.0516 h -18.07558 c -2.92269,0 -5.85193,2.1228 -7.17693,5.0516 l -21.26673,53.1638 -21.53507,-53.1638 c -1.06192,-2.9288 -4.25322,-5.0516 -7.17705,-5.0516 h -18.07548 c -2.65974,0 -3.99116,2.1228 -2.92807,5.0516 l 35.62492,88.2529 -35.35659,87.7287 c -1.06295,2.9227 0.26846,5.0531 3.19127,5.0531 h 17.80596 c 2.93031,0 5.85312,-2.1304 7.1835,-5.0531 l 21.26661,-52.9018 21.26673,52.9018 c 1.325,2.9227 4.25424,5.0531 7.17693,5.0531 h 18.07558 c 2.65962,0 3.98474,-2.1304 2.92165,-5.0531 l -35.35648,-87.7287 35.35648,-88.2529"
         style="fill:#000000;fill-opacity:1;fill-rule:nonzero;stroke:none;stroke-width:0.107375"
         id="path30" /></g></g></svg>
