<?xml version="1.0" standalone="no"?>
<!DOCTYPE svg PUBLIC "-//W3C//DTD SVG 20010904//EN"
 "http://www.w3.org/TR/2001/REC-SVG-20010904/DTD/svg10.dtd">
<svg version="1.0" xmlns="http://www.w3.org/2000/svg"
 width="700.000000pt" height="700.000000pt" viewBox="0 0 700.000000 700.000000"
 preserveAspectRatio="xMidYMid meet">
<metadata>
Created by potrace 1.11, written by Peter Selinger 2001-2013
</metadata>
<g transform="translate(0.000000,700.000000) scale(0.100000,-0.100000)"
fill="#000000" stroke="none">
<path d="M0 3500 l0 -3500 3500 0 3500 0 0 3500 0 3500 -3500 0 -3500 0 0
-3500z m6517 3017 c4 -5 9 -5905 4 -6022 -1 -20 -8 -20 -3017 -19 -2132 0
-3018 4 -3022 11 -5 8 -8 6004 -3 6033 1 8 6030 4 6038 -3z"/>
<path d="M1311 5869 c-10 -4 -20 -13 -23 -21 -3 -7 -4 -383 -4 -836 1 -780 2
-824 19 -837 26 -19 214 -15 227 5 12 19 11 -22 12 590 0 289 4 514 9 500 8
-26 40 -137 45 -155 17 -70 268 -913 275 -927 11 -21 4 -20 144 -23 80 -2 116
1 132 11 l22 14 0 829 c0 725 -1 831 -14 841 -24 20 -210 19 -229 0 -14 -13
-16 -84 -16 -539 0 -288 -2 -522 -4 -520 -4 4 -273 944 -281 979 -19 85 -35
94 -176 95 -65 0 -127 -3 -138 -6z"/>
<path d="M2301 5869 c-10 -4 -21 -13 -23 -21 -3 -7 -5 -383 -5 -835 -1 -727 1
-824 15 -835 11 -10 96 -13 356 -14 292 -1 344 1 359 14 24 21 25 202 1 226
-13 14 -50 16 -245 16 l-229 0 0 235 0 235 183 0 c100 0 189 4 197 10 11 7 14
33 15 110 2 138 1 138 -123 139 -53 0 -136 0 -184 1 l-88 0 0 234 0 234 232 0
c210 0 233 2 245 18 18 25 18 194 -1 219 -12 17 -34 18 -350 19 -185 1 -344
-2 -355 -5z"/>
<path d="M3149 5868 c-10 -4 -20 -13 -20 -20 -1 -7 -3 -380 -4 -828 -2 -649 0
-819 10 -836 13 -20 19 -21 358 -20 276 1 347 4 360 15 24 19 25 202 1 225
-13 14 -50 16 -245 16 l-229 0 0 235 0 235 184 0 c223 0 213 -6 212 134 -2
123 -5 128 -110 126 -45 -1 -127 -1 -183 -1 l-103 1 0 234 0 233 230 1 c167 0
235 3 245 12 22 18 21 212 -1 231 -12 10 -91 13 -350 13 -184 1 -344 -2 -355
-6z"/>
<path d="M4002 5866 c-9 -5 -19 -13 -22 -17 -3 -5 -6 -380 -5 -834 0 -779 1
-827 18 -840 21 -15 464 -13 512 3 166 55 260 159 282 307 10 71 9 1008 -1
1079 -20 140 -139 259 -296 296 -64 16 -462 20 -488 6z m461 -279 c73 -43 71
-30 71 -573 0 -459 -1 -482 -20 -515 -31 -54 -86 -76 -194 -78 l-90 -2 0 600
0 601 94 -4 c80 -2 101 -7 139 -29z"/>
<path d="M5213 5868 c-143 -22 -258 -131 -297 -283 -20 -74 -21 -287 -2 -366
22 -94 81 -179 162 -232 21 -15 88 -47 149 -72 130 -53 172 -84 205 -150 33
-68 36 -211 4 -265 -63 -109 -206 -106 -255 5 -11 25 -21 65 -23 89 -4 70 -14
76 -123 76 -129 0 -133 -3 -133 -94 0 -187 96 -336 254 -393 56 -20 201 -25
269 -9 178 42 286 190 292 404 5 166 -34 277 -130 376 -68 71 -104 95 -219
147 -114 51 -179 103 -197 157 -13 38 -17 186 -6 234 17 79 82 130 156 123 83
-9 128 -65 136 -172 7 -80 11 -83 131 -83 132 0 135 2 129 113 -6 134 -47 229
-130 306 -51 47 -111 77 -170 87 -63 10 -146 11 -202 2z"/>
<path d="M1327 3818 l-24 -24 -1 -1295 c0 -808 3 -1306 9 -1326 7 -21 19 -34
37 -40 15 -5 203 -8 417 -7 361 2 396 4 470 23 44 12 103 33 132 47 68 35 144
111 177 180 49 101 56 159 56 514 0 179 -3 341 -6 360 -22 147 -124 288 -252
350 -28 14 -51 27 -51 30 0 3 17 13 39 23 106 49 201 152 241 262 20 54 23 82
25 275 2 154 -1 233 -11 278 -40 182 -147 292 -340 347 -51 15 -120 18 -477
22 l-417 5 -24 -24z m788 -414 c62 -32 73 -65 74 -226 2 -154 -7 -199 -51
-253 -57 -68 -134 -92 -307 -94 l-121 -2 0 300 0 300 53 3 c28 2 111 1 182 -2
105 -4 138 -9 170 -26z m-111 -992 c60 -17 120 -58 152 -103 l29 -42 0 -318
c0 -305 -1 -319 -21 -346 -41 -56 -78 -66 -275 -68 l-179 -3 0 442 c0 244 2
445 5 448 9 8 251 0 289 -10z"/>
<path d="M3255 3824 c-229 -55 -412 -262 -451 -509 -13 -88 -11 -1591 2 -1665
50 -267 227 -463 459 -510 94 -19 296 -15 385 8 227 59 403 271 435 523 4 30
7 405 7 834 -1 756 -1 782 -21 860 -34 130 -83 219 -170 305 -81 80 -148 119
-255 150 -79 22 -305 24 -391 4z m267 -406 c76 -23 138 -107 153 -210 4 -24 7
-356 7 -738 0 -712 -1 -740 -39 -815 -40 -79 -108 -119 -204 -118 -112 0 -187
60 -222 180 -13 43 -15 158 -13 784 2 719 2 735 22 779 59 126 167 177 296
138z"/>
<path d="M4227 3820 c-18 -26 -14 -45 34 -155 5 -11 33 -81 63 -155 29 -74
120 -299 201 -500 82 -201 159 -394 173 -430 14 -36 28 -70 33 -75 4 -6 -10
-53 -30 -105 -78 -197 -352 -876 -361 -895 -28 -61 -130 -325 -130 -338 0 -34
28 -40 189 -41 140 0 160 2 184 19 33 25 35 28 162 345 58 146 113 280 121
297 8 18 21 50 28 70 8 21 22 56 31 78 l17 40 125 -315 c69 -173 131 -328 138
-345 8 -16 23 -54 34 -83 39 -98 66 -109 251 -106 74 1 141 2 148 3 7 1 17 12
23 24 9 20 1 49 -51 178 -33 85 -67 168 -74 184 -7 17 -98 242 -201 501 l-188
472 47 118 c26 66 56 138 67 161 10 24 19 47 19 51 0 5 6 22 14 38 8 16 38 88
66 159 28 72 55 139 60 150 23 50 239 593 245 616 4 18 1 31 -10 43 -14 13
-41 16 -169 16 -142 0 -155 -2 -186 -22 -40 -29 -43 -35 -130 -253 -39 -99
-75 -189 -80 -200 -5 -11 -40 -98 -78 -194 -38 -95 -72 -169 -74 -165 -3 5
-74 180 -158 389 -112 280 -159 388 -181 410 l-29 30 -164 3 c-158 3 -164 3
-179 -18z"/>
</g>
</svg>
